<svg xmlns="http://www.w3.org/2000/svg" viewBox="0 0 1000 1000"><path fill-rule="evenodd" d="m903 254-118 63 34 52c26 17 48 35 65 51 17 17 31 34 41 51s17 35 21 52a245 245 0 0 1-7 138c-9 26-22 53-39 79-35 41-85 62-151 63-30 0-57-5-81-15a186 186 0 0 1-103-104c-10-25-15-51-15-81 1-124 64-198 189-220v-2l-50-74h2l-2-1 101-50v-2H592v-57h311ZM755 747a109 109 0 0 0 91-48c10-15 18-33 23-53a292 292 0 0 0 1-118c-4-15-8-27-14-38a113 113 0 0 0-37-41 62 62 0 0 0-43-14c-100 13-150 70-150 172 0 19 3 37 9 54a121 121 0 0 0 67 74c15 8 33 11 53 12ZM401 254l-119 63 35 52c26 17 48 35 65 51 17 17 30 34 40 51 11 17 18 35 22 52a245 245 0 0 1-7 138c-9 26-22 53-39 79-35 41-86 62-151 63-30 0-57-5-82-15A186 186 0 0 1 62 684c-9-25-14-51-14-81 1-124 64-198 189-220v-2l-50-74h2l-2-1 101-50v-2H90v-57h311ZM253 747a109 109 0 0 0 91-48c10-15 18-33 23-53a292 292 0 0 0 1-118c-4-15-9-27-14-38a113 113 0 0 0-37-41 62 62 0 0 0-43-14c-100 13-150 70-150 172 0 19 3 37 8 54a128 128 0 0 0 67 74c16 8 34 11 54 12Z"/></svg>